<?xml version="1.0" encoding="utf-8"?>
<!-- Generator: Adobe Illustrator 22.1.0, SVG Export Plug-In . SVG Version: 6.00 Build 0)  -->
<svg version="1.1" id="Layer_1" xmlns="http://www.w3.org/2000/svg" xmlns:xlink="http://www.w3.org/1999/xlink" x="0px" y="0px"
	 viewBox="0 0 144 144" style="enable-background:new 0 0 144 144;" xml:space="preserve">
<style type="text/css">
	.st0{fill:none;}
	.st1{fill:#6CCEF5;}
	.st2{fill:#00B8F1;}
	.st3{fill:#009DDA;}
	.st4{fill:#0088CF;}
	.st5{fill:#0066B2;}
	.st6{fill:#174E82;}
</style>
<g>
	<polygon class="st0" points="93.1,51.2 61.5,51.2 50.9,51.2 50.9,54.7 50.9,58.2 50.9,65.5 50.9,73.8 50.9,93.5 79.5,93.5 
		93.1,93.5 93.1,88.2 93.1,73.8 93.1,65.5 93.1,63.8 	"/>
	<path class="st1" d="M65.5,27.4c3.6-0.1,6.7-0.5,9.6-1.1H50.5C54.9,27.2,59.8,27.6,65.5,27.4z"/>
	<path class="st1" d="M75.1,26.3c7.7-1.5,13.1-4.4,19-7.2H37.2c-2.1,0-4.2,0.4-6.1,1.1c6.2,2.3,12.1,4.7,19.4,6.1H75.1z"/>
	<path class="st2" d="M40.1,56.3c3.9-0.3,7.5-0.9,10.8-1.6v-3.4h10.6C66,49.4,70,47.2,73.8,45h-55v10.2C25.1,56.4,32,57,40.1,56.3z"
		/>
	<path class="st2" d="M109.9,31.8c5-0.3,9.8,0,14.6,0.5c-0.5-1.8-1.3-3.5-2.4-5.1c-0.2-0.3-0.5-0.6-0.7-0.9H75.1
		c-2.8,0.6-5.9,1-9.6,1.1c-5.7,0.2-10.6-0.2-15-1.1H22.7c-0.2,0.3-0.5,0.6-0.7,0.9c-2,2.9-3.1,6.5-3.1,10.3v7.3h55
		C84.1,38.9,93.5,32.7,109.9,31.8z"/>
	<path class="st2" d="M31.1,20.2c-3.4,1.2-6.3,3.3-8.4,6.1h27.8C43.2,24.9,37.2,22.5,31.1,20.2z"/>
	<path class="st2" d="M121.3,26.3c-3.4-4.3-8.6-7.2-14.5-7.2l0,0H94c-5.9,2.8-11.2,5.6-19,7.2H121.3z"/>
	<path class="st3" d="M125.2,73.2v-7.7H97.4C105.6,68.8,113.7,72.1,125.2,73.2z"/>
	<path class="st3" d="M18.8,65.5v4.1c3.7-1.2,7-2.7,10.1-4.1H18.8z"/>
	<path class="st3" d="M61.5,51.2h31.6v12.6c1.4,0.6,2.9,1.1,4.3,1.7h27.8V44.9H73.8C70,47.1,66,49.3,61.5,51.2z"/>
	<path class="st3" d="M50.9,58.2v-3.5c-3.3,0.8-6.8,1.3-10.8,1.6c-8.1,0.6-15,0-21.3-1.3v10.5h10.1C35.5,62.5,41.7,59.5,50.9,58.2z"
		/>
	<path class="st3" d="M109.9,31.8c-16.4,0.9-25.8,7.1-36,13.1h51.4v-7.3c0-1.8-0.3-3.6-0.8-5.2C119.7,31.8,114.8,31.5,109.9,31.8z"
		/>
	<path class="st4" d="M93.1,88.2c9.2-4,18.2-8,32.1-8.7v-5.7H93.1V88.2z"/>
	<path class="st4" d="M57.8,96.9c8.8-0.2,15.7-1.6,21.8-3.5H50.9V73.8H18.8v13.7C29.6,92,38.8,97.4,57.8,96.9z"/>
	<path class="st4" d="M50.9,65.5h-22c-3.2,1.5-6.4,2.9-10.1,4.1v4.1h32.1C50.9,73.7,50.9,65.5,50.9,65.5z"/>
	<path class="st4" d="M97.4,65.5h-4.3v8.3h32.1v-0.5C113.7,72.1,105.6,68.8,97.4,65.5z"/>
	<path class="st4" d="M28.9,65.5h21.9v-7.3C41.7,59.5,35.5,62.5,28.9,65.5z"/>
	<path class="st4" d="M93.1,65.5h4.3c-1.4-0.6-2.9-1.2-4.3-1.7V65.5z"/>
	<path class="st5" d="M18.8,104.7v2.4c0,1.7,0.3,3.3,0.7,4.8c14.6-0.7,24.6-4,35.9-7.2C55.4,104.7,18.8,104.7,18.8,104.7z"/>
	<path class="st5" d="M93.1,93.5H79.5c-6,1.9-13,3.2-21.8,3.5c-19,0.5-28.2-4.9-39-9.5v17.3h36.5c10.1-2.9,21.3-5.7,37.8-6.4
		c8.4-0.4,19.5-0.2,32,1.3V79.5c-13.9,0.7-22.9,4.7-32.1,8.7v5.3H93.1z"/>
	<path class="st6" d="M19.5,112c0.5,2,1.4,3.8,2.5,5.5c3.3,4.9,8.9,8.1,15.2,8.1h69.6l0,0c6.4,0,11.9-3.2,15.3-8.1
		c2-2.9,3.1-6.5,3.1-10.3v-2.4H55.3C44,107.9,34.1,111.3,19.5,112z"/>
	<path class="st6" d="M93.2,98.3c-16.5,0.7-27.7,3.5-37.8,6.4h69.9v-5.1C112.7,98.1,101.6,97.9,93.2,98.3z"/>
</g>
</svg>
