<?xml version="1.0" encoding="utf-8"?>
<!-- Generator: Adobe Illustrator 22.1.0, SVG Export Plug-In . SVG Version: 6.00 Build 0)  -->
<svg version="1.1" id="Layer_1" xmlns="http://www.w3.org/2000/svg" xmlns:xlink="http://www.w3.org/1999/xlink" x="0px" y="0px"
	 viewBox="0 0 177 24" style="enable-background:new 0 0 177 24;" xml:space="preserve">
<style type="text/css">
	.st0{fill:none;}
	.st1{fill:#6CCEF5;}
	.st2{fill:#00B8F1;}
	.st3{fill:#009DDA;}
	.st4{fill:#0088CF;}
	.st5{fill:#0066B2;}
	.st6{fill:#174E82;}
	.st7{enable-background:new    ;}
	.st8{fill:#FFFFFF;}
	.st9{fill:#9F9FA9;}
</style>
<g>
	<polygon class="st0" points="16.8,7.2 9.6,7.2 7.3,7.2 7.3,8 7.3,8.8 7.3,10.5 7.3,12.3 7.3,16.8 13.7,16.8 16.8,16.8 16.8,15.6 
		16.8,12.3 16.8,10.5 16.8,10.1 	"/>
	<path class="st1" d="M10.5,1.9c0.8,0,1.5-0.1,2.2-0.2H7.2C8.2,1.8,9.3,1.9,10.5,1.9z"/>
	<path class="st1" d="M12.7,1.6c1.7-0.3,3-1,4.3-1.6H4.2c-0.5,0-1,0.1-1.4,0.2c1.4,0.5,2.7,1.1,4.4,1.4H12.7z"/>
	<path class="st2" d="M4.8,8.4C5.7,8.3,6.5,8.2,7.3,8V7.3h2.4c1-0.4,1.9-0.9,2.8-1.4H0v2.3C1.4,8.4,3,8.5,4.8,8.4z"/>
	<path class="st2" d="M20.6,2.9c1.1-0.1,2.2,0,3.3,0.1c-0.1-0.4-0.3-0.8-0.5-1.1c0-0.1-0.1-0.1-0.2-0.2H12.7
		c-0.6,0.1-1.3,0.2-2.2,0.2c-1.3,0-2.4,0-3.4-0.2H0.9c0,0.1-0.1,0.1-0.2,0.2C0.3,2.5,0,3.3,0,4.1v1.6h12.4
		C14.7,4.5,16.9,3.1,20.6,2.9z"/>
	<path class="st2" d="M2.8,0.2C2,0.5,1.4,1,0.9,1.6h6.3C5.5,1.3,4.2,0.8,2.8,0.2z"/>
	<path class="st2" d="M23.1,1.6c-0.8-1-1.9-1.6-3.3-1.6l0,0H17c-1.3,0.6-2.5,1.3-4.3,1.6H23.1z"/>
	<path class="st3" d="M24,12.2v-1.7h-6.3C19.6,11.2,21.4,11.9,24,12.2z"/>
	<path class="st3" d="M0,10.5v0.9c0.8-0.3,1.6-0.6,2.3-0.9H0z"/>
	<path class="st3" d="M9.6,7.2h7.1V10c0.3,0.1,0.7,0.2,1,0.4H24V5.8H12.4C11.6,6.3,10.7,6.8,9.6,7.2z"/>
	<path class="st3" d="M7.3,8.8V8C6.5,8.2,5.7,8.3,4.8,8.4C3,8.5,1.4,8.4,0,8.1v2.4h2.3C3.8,9.8,5.2,9.1,7.3,8.8z"/>
	<path class="st3" d="M20.6,2.9c-3.7,0.2-5.8,1.6-8.1,3H24V4.2c0-0.4,0-0.8-0.2-1.2C22.8,2.9,21.7,2.8,20.6,2.9z"/>
	<path class="st4" d="M16.8,15.6c2.1-0.9,4.1-1.8,7.2-2v-1.3h-7.2V15.6z"/>
	<path class="st4" d="M8.8,17.5c2,0,3.5-0.4,4.9-0.8H7.3v-4.4H0v3.1C2.5,16.4,4.5,17.6,8.8,17.5z"/>
	<path class="st4" d="M7.3,10.5h-5c-0.7,0.3-1.4,0.7-2.3,0.9v0.9h7.2v-1.8H7.3z"/>
	<path class="st4" d="M17.7,10.5h-1v1.9H24v-0.1C21.4,11.9,19.6,11.2,17.7,10.5z"/>
	<path class="st4" d="M2.3,10.5h4.9V8.8C5.2,9.1,3.8,9.8,2.3,10.5z"/>
	<path class="st4" d="M16.8,10.5h1c-0.3-0.1-0.7-0.3-1-0.4V10.5z"/>
	<path class="st5" d="M0,19.3v0.5c0,0.4,0.1,0.7,0.2,1.1c3.3-0.2,5.5-0.9,8.1-1.6H0z"/>
	<path class="st5" d="M16.8,16.8h-3.1c-1.4,0.4-2.9,0.7-4.9,0.8c-4.3,0.1-6.4-1.1-8.8-2.1v3.9h8.2c2.3-0.7,4.8-1.3,8.5-1.4
		c1.9-0.1,4.4,0,7.2,0.3v-4.6c-3.1,0.2-5.2,1.1-7.2,2L16.8,16.8L16.8,16.8z"/>
	<path class="st6" d="M0.2,20.9c0.1,0.5,0.3,0.9,0.6,1.2c0.7,1.1,2,1.8,3.4,1.8h15.7l0,0c1.4,0,2.7-0.7,3.4-1.8
		c0.5-0.7,0.7-1.5,0.7-2.3v-0.5H8.2C5.7,20,3.5,20.8,0.2,20.9z"/>
	<path class="st6" d="M16.8,17.8c-3.7,0.2-6.2,0.8-8.5,1.4H24v-1.1C21.2,17.8,18.7,17.8,16.8,17.8z"/>
</g>
<g class="st7">
	<path class="st8" d="M44,16.9l-2.3-8.6l-2.3,8.6c-0.2,0.7-0.3,1.1-0.4,1.4s-0.3,0.5-0.6,0.8s-0.6,0.3-1.1,0.3
		c-0.4,0-0.7-0.1-0.9-0.2s-0.4-0.3-0.6-0.6s-0.3-0.5-0.4-0.9s-0.2-0.6-0.2-0.9l-2.4-9.6c-0.1-0.6-0.2-1-0.2-1.3
		c0-0.4,0.1-0.7,0.4-0.9s0.6-0.4,1-0.4c0.5,0,0.9,0.2,1.1,0.5s0.3,0.8,0.5,1.5l1.9,8.4l2.1-7.8c0.2-0.6,0.3-1.1,0.4-1.4
		s0.3-0.6,0.6-0.8s0.7-0.3,1.1-0.3c0.5,0,0.9,0.1,1.1,0.4s0.5,0.5,0.6,0.8s0.2,0.7,0.4,1.4l2.1,7.8l1.9-8.4c0.1-0.4,0.2-0.8,0.3-1
		s0.2-0.5,0.4-0.7s0.5-0.3,0.9-0.3s0.7,0.1,1,0.4s0.4,0.6,0.4,0.9c0,0.3-0.1,0.7-0.2,1.3l-2.4,9.6c-0.2,0.7-0.3,1.1-0.4,1.4
		s-0.3,0.6-0.5,0.8s-0.6,0.3-1.1,0.3c-0.4,0-0.8-0.1-1.1-0.3s-0.5-0.5-0.6-0.7S44.2,17.6,44,16.9z"/>
	<path class="st8" d="M55.8,17.7v-4.5l-3.5-5.4c-0.3-0.5-0.5-0.9-0.6-1.1s-0.2-0.5-0.2-0.7c0-0.3,0.1-0.6,0.4-0.9s0.6-0.4,1-0.4
		c0.4,0,0.7,0.1,0.9,0.3s0.5,0.7,0.9,1.3l2.7,4.3L60,6.3c0.2-0.3,0.3-0.5,0.4-0.7s0.2-0.4,0.4-0.5s0.3-0.3,0.4-0.4s0.4-0.1,0.6-0.1
		c0.4,0,0.7,0.1,0.9,0.4s0.4,0.5,0.4,0.8c0,0.3-0.1,0.5-0.2,0.8s-0.3,0.6-0.6,1.1l-3.6,5.5v4.5c0,0.6-0.1,1-0.4,1.3s-0.6,0.4-1,0.4
		c-0.4,0-0.8-0.1-1-0.4S55.8,18.3,55.8,17.7z"/>
	<path class="st8" d="M68,6.4v4.1h6.3V6.4c0-0.6,0.1-1,0.4-1.3s0.6-0.4,1-0.4c0.4,0,0.8,0.1,1.1,0.4s0.4,0.7,0.4,1.3v11.3
		c0,0.6-0.1,1-0.4,1.3s-0.6,0.4-1.1,0.4c-0.4,0-0.8-0.1-1-0.4s-0.4-0.7-0.4-1.3v-4.8H68v4.8c0,0.6-0.1,1-0.4,1.3s-0.6,0.4-1.1,0.4
		c-0.4,0-0.8-0.1-1-0.4s-0.4-0.7-0.4-1.3V6.4c0-0.6,0.1-1,0.4-1.3s0.6-0.4,1-0.4c0.4,0,0.8,0.1,1.1,0.4S68,5.8,68,6.4z"/>
	<path class="st8" d="M80.4,17.7V6.4c0-0.6,0.1-1,0.4-1.3s0.6-0.4,1-0.4c0.4,0,0.8,0.1,1.1,0.4s0.4,0.7,0.4,1.3v11.3
		c0,0.6-0.1,1-0.4,1.3s-0.6,0.4-1.1,0.4c-0.4,0-0.8-0.1-1-0.4S80.4,18.3,80.4,17.7z"/>
	<path class="st8" d="M89.4,6.4v10.4h5.9c0.5,0,0.8,0.1,1.1,0.3c0.3,0.2,0.4,0.5,0.4,0.9c0,0.4-0.1,0.6-0.4,0.9
		c-0.2,0.2-0.6,0.3-1.1,0.3h-7c-0.6,0-1.1-0.1-1.4-0.4s-0.4-0.7-0.4-1.4v-11c0-0.6,0.1-1,0.4-1.3s0.6-0.4,1-0.4
		c0.4,0,0.8,0.1,1.1,0.4C89.3,5.4,89.4,5.8,89.4,6.4z"/>
</g>
<g class="st7">
	<path class="st9" d="M110.5,4.9h3.8c1,0,1.8,0.1,2.5,0.3s1.3,0.5,1.9,1c1.5,1.3,2.2,3.2,2.2,5.8c0,0.9-0.1,1.6-0.2,2.4
		c-0.1,0.7-0.4,1.3-0.7,1.9s-0.7,1.1-1.2,1.5c-0.4,0.3-0.8,0.6-1.3,0.8c-0.5,0.2-0.9,0.4-1.5,0.4c-0.5,0.1-1.1,0.1-1.8,0.1h-3.8
		c-0.5,0-0.9-0.1-1.2-0.2c-0.3-0.2-0.4-0.4-0.5-0.7c-0.1-0.3-0.1-0.7-0.1-1.1V6.7c0-0.6,0.1-1.1,0.4-1.4
		C109.4,5,109.8,4.9,110.5,4.9z M111.6,7.2v9.7h2.2c0.5,0,0.9,0,1.1,0s0.6-0.1,0.8-0.2s0.5-0.3,0.8-0.4c1-0.8,1.5-2.2,1.5-4.2
		c0-1.4-0.2-2.5-0.6-3.2c-0.4-0.7-1-1.2-1.6-1.3s-1.4-0.3-2.3-0.3H111.6z"/>
	<path class="st9" d="M129.8,4.6c1.5,0,2.8,0.3,3.8,0.9s1.9,1.5,2.4,2.6s0.8,2.4,0.8,3.9c0,1.1-0.1,2.1-0.4,3
		c-0.3,0.9-0.7,1.7-1.3,2.4c-0.6,0.7-1.3,1.2-2.2,1.5c-0.9,0.4-1.9,0.5-3,0.5c-1.1,0-2.1-0.2-3-0.5c-0.9-0.4-1.6-0.9-2.2-1.5
		c-0.6-0.7-1-1.4-1.3-2.4s-0.5-1.9-0.5-3c0-1.1,0.2-2.1,0.5-3c0.3-0.9,0.8-1.7,1.4-2.3c0.6-0.6,1.3-1.1,2.2-1.5S128.7,4.6,129.8,4.6
		z M133.9,12c0-1-0.2-2-0.5-2.7c-0.3-0.8-0.8-1.3-1.5-1.7c-0.6-0.4-1.3-0.6-2.2-0.6c-0.6,0-1.1,0.1-1.6,0.3c-0.5,0.2-0.9,0.5-1.3,1
		c-0.4,0.4-0.6,0.9-0.8,1.6s-0.3,1.4-0.3,2.2c0,0.8,0.1,1.5,0.3,2.2s0.5,1.2,0.9,1.6c0.4,0.4,0.8,0.8,1.3,1c0.5,0.2,1,0.3,1.6,0.3
		c0.7,0,1.4-0.2,2-0.6c0.6-0.4,1.1-0.9,1.5-1.7C133.7,14.1,133.9,13.1,133.9,12z"/>
	<path class="st9" d="M151.5,14.7c0,0.5-0.1,0.9-0.3,1.5s-0.6,1.1-1.1,1.6c-0.5,0.5-1.1,0.9-1.8,1.2c-0.7,0.3-1.6,0.5-2.6,0.5
		c-0.8,0-1.4-0.1-2.1-0.2c-0.6-0.1-1.2-0.4-1.7-0.7c-0.5-0.3-1-0.7-1.4-1.2c-0.4-0.4-0.7-1-1-1.5c-0.3-0.6-0.5-1.2-0.6-1.8
		c-0.1-0.6-0.2-1.3-0.2-2c0-1.2,0.2-2.2,0.5-3.1c0.3-0.9,0.8-1.7,1.4-2.3s1.4-1.1,2.2-1.5s1.7-0.5,2.7-0.5c1.2,0,2.2,0.2,3.1,0.7
		c0.9,0.5,1.6,1,2.1,1.7c0.5,0.7,0.7,1.3,0.7,1.9c0,0.3-0.1,0.6-0.4,0.9s-0.5,0.4-0.8,0.4c-0.4,0-0.6-0.1-0.8-0.3s-0.4-0.5-0.6-0.9
		c-0.4-0.7-0.8-1.2-1.3-1.6c-0.5-0.4-1.1-0.5-1.9-0.5c-1.2,0-2.1,0.5-2.8,1.4c-0.7,0.9-1.1,2.2-1.1,3.9c0,1.1,0.2,2,0.5,2.8
		s0.8,1.3,1.3,1.7c0.6,0.4,1.2,0.5,2,0.5c0.8,0,1.5-0.2,2.1-0.6s1-1,1.3-1.8c0.1-0.4,0.3-0.7,0.5-0.9c0.2-0.2,0.5-0.4,0.9-0.4
		c0.3,0,0.6,0.1,0.9,0.4C151.4,14,151.5,14.3,151.5,14.7z"/>
	<path class="st9" d="M162.5,16c0,0.7-0.2,1.4-0.5,1.9c-0.4,0.5-0.9,0.9-1.6,1.2c-0.7,0.3-1.6,0.4-2.6,0.4c-1,0-1.8-0.1-2.5-0.4
		s-1.2-0.7-1.5-1.1c-0.3-0.4-0.5-0.9-0.5-1.3c0-0.3,0.1-0.5,0.3-0.8c0.2-0.2,0.5-0.3,0.8-0.3c0.3,0,0.5,0.1,0.6,0.2
		c0.2,0.1,0.3,0.3,0.4,0.6c0.3,0.5,0.6,0.8,1,1.1s0.9,0.4,1.6,0.4c0.5,0,1-0.1,1.3-0.4s0.5-0.5,0.5-0.8c0-0.5-0.2-0.8-0.5-1
		c-0.4-0.2-0.9-0.4-1.8-0.6c-0.9-0.2-1.7-0.5-2.2-0.7s-1-0.6-1.4-1c-0.3-0.4-0.5-0.9-0.5-1.5c0-0.5,0.2-1,0.5-1.5
		c0.3-0.5,0.8-0.9,1.4-1.1c0.6-0.3,1.4-0.4,2.3-0.4c0.7,0,1.3,0.1,1.9,0.2c0.6,0.1,1,0.3,1.4,0.6c0.4,0.2,0.6,0.5,0.8,0.8
		c0.2,0.3,0.3,0.6,0.3,0.9c0,0.3-0.1,0.6-0.3,0.8s-0.5,0.3-0.9,0.3c-0.3,0-0.5-0.1-0.7-0.2c-0.2-0.2-0.4-0.4-0.7-0.7
		c-0.2-0.3-0.4-0.5-0.7-0.6s-0.6-0.2-1.1-0.2c-0.5,0-0.9,0.1-1.2,0.3c-0.3,0.2-0.5,0.5-0.5,0.8c0,0.3,0.1,0.5,0.4,0.7
		s0.6,0.3,0.9,0.4c0.4,0.1,0.9,0.3,1.6,0.4c0.8,0.2,1.5,0.4,2,0.7c0.5,0.3,0.9,0.6,1.2,1C162.4,15,162.5,15.5,162.5,16z"/>
</g>
</svg>
