<?xml version="1.0" encoding="utf-8"?>
<!-- Generator: Adobe Illustrator 22.1.0, SVG Export Plug-In . SVG Version: 6.00 Build 0)  -->
<svg version="1.1" xmlns="http://www.w3.org/2000/svg" xmlns:xlink="http://www.w3.org/1999/xlink" x="0px" y="0px"
	 viewBox="0 0 177 24" style="enable-background:new 0 0 177 24;" xml:space="preserve">
<style type="text/css">
	.st0{display:none;}
	.st1{display:inline;fill:#09090B;}
	.st2{display:inline;fill:#52525C;}
	.st3{fill:none;}
	.st4{fill:#6CCEF5;}
	.st5{fill:#00B8F1;}
	.st6{fill:#009DDA;}
	.st7{fill:#0088CF;}
	.st8{fill:#0066B2;}
	.st9{fill:#174E82;}
	.st10{fill:#FFFFFF;}
	.st11{fill:#9F9FA9;}
</style>
<g id="Layer_1" class="st0">
	<path class="st1" d="M32.3,19.4V3.9h5.6l2,6.1c0.1,0.4,0.2,0.8,0.4,1.4c0.2,0.6,0.3,1.2,0.4,1.8c0.2,0.7,0.3,1.3,0.4,1.9
		c0.1,0.6,0.2,1.1,0.3,1.5h-0.8c0.1-0.4,0.2-0.9,0.3-1.5c0.1-0.6,0.3-1.2,0.4-1.9c0.2-0.7,0.3-1.3,0.4-1.8c0.1-0.6,0.3-1.1,0.4-1.4
		l2-6.1h5.6v15.5h-3.7v-6.7c0-0.3,0-0.8,0-1.3c0-0.5,0-1.1,0-1.7c0-0.6,0-1.3,0.1-1.9c0-0.6,0-1.2,0-1.8h0.3
		c-0.1,0.6-0.3,1.2-0.5,1.9s-0.3,1.3-0.5,1.9c-0.2,0.6-0.3,1.2-0.5,1.7c-0.1,0.5-0.3,0.9-0.4,1.3l-2.2,6.7h-3l-2.2-6.7
		c-0.1-0.3-0.2-0.8-0.4-1.3c-0.1-0.5-0.3-1.1-0.5-1.7c-0.2-0.6-0.3-1.2-0.5-1.9c-0.2-0.6-0.3-1.3-0.5-1.9h0.4c0,0.5,0,1.1,0,1.8
		c0,0.6,0,1.3,0,1.9c0,0.6,0,1.2,0.1,1.7c0,0.5,0,1,0,1.3v6.7H32.3z M51.7,19.4V8h3.6v11.4H51.7z M53.5,6.8c-0.5,0-1-0.2-1.4-0.5
		c-0.4-0.3-0.6-0.8-0.6-1.3s0.2-0.9,0.6-1.3c0.4-0.3,0.8-0.5,1.4-0.5c0.5,0,1,0.2,1.4,0.5c0.4,0.3,0.6,0.8,0.6,1.3
		c0,0.5-0.2,0.9-0.6,1.3C54.5,6.6,54,6.8,53.5,6.8z M60.7,13v6.4h-3.6V8h3.5l0,2.9h-0.3c0.3-0.9,0.8-1.7,1.4-2.3
		c0.6-0.6,1.5-0.9,2.5-0.9c0.8,0,1.5,0.2,2.1,0.5c0.6,0.4,1,0.9,1.4,1.5c0.3,0.7,0.5,1.4,0.5,2.3v7.2h-3.6v-6.5
		c0-0.7-0.2-1.2-0.5-1.5c-0.3-0.4-0.8-0.5-1.4-0.5c-0.4,0-0.7,0.1-1,0.2c-0.3,0.2-0.5,0.4-0.7,0.7C60.8,12.2,60.7,12.6,60.7,13z
		 M76.5,8v2.7H69V8H76.5z M70.7,5.2h3.6v10.6c0,0.3,0.1,0.6,0.2,0.7c0.1,0.1,0.4,0.2,0.8,0.2c0.1,0,0.3,0,0.6,0c0.2,0,0.4,0,0.5-0.1
		l0.3,2.7c-0.3,0.1-0.7,0.1-1.1,0.1c-0.4,0-0.7,0-1.1,0c-1.3,0-2.2-0.3-2.8-0.8c-0.6-0.5-0.9-1.4-0.9-2.5V5.2z"/>
	<path class="st2" d="M88.7,19.7c-1.1,0-2.1-0.2-3-0.6c-0.8-0.4-1.5-0.9-2-1.6C83.2,16.7,83,15.9,83,15h2c0,0.6,0.2,1.2,0.5,1.6
		c0.3,0.4,0.8,0.8,1.3,1c0.6,0.2,1.2,0.3,1.9,0.3c0.7,0,1.4-0.1,1.9-0.3c0.6-0.2,1-0.5,1.3-1c0.3-0.4,0.5-0.9,0.5-1.4
		c0-0.5-0.1-0.9-0.4-1.2c-0.2-0.3-0.6-0.6-1.1-0.8c-0.5-0.2-1-0.4-1.6-0.6l-1.8-0.5c-1.4-0.4-2.4-0.9-3.1-1.5c-0.7-0.7-1-1.5-1-2.5
		c0-0.9,0.2-1.7,0.7-2.3c0.5-0.7,1.1-1.2,1.9-1.5c0.8-0.4,1.7-0.6,2.8-0.6c1,0,2,0.2,2.7,0.6c0.8,0.4,1.4,0.9,1.9,1.6
		C93.7,6.4,94,7.2,94,8.1h-1.9c-0.1-0.8-0.4-1.5-1.1-2c-0.6-0.5-1.4-0.7-2.4-0.7c-0.7,0-1.3,0.1-1.8,0.3c-0.5,0.2-0.9,0.5-1.2,0.9
		C85.4,7,85.2,7.5,85.2,8c0,0.5,0.1,0.9,0.4,1.2c0.3,0.3,0.7,0.6,1.1,0.8c0.5,0.2,0.9,0.4,1.5,0.5l1.6,0.4c0.6,0.1,1.1,0.3,1.6,0.6
		c0.5,0.2,1,0.5,1.4,0.8c0.4,0.3,0.8,0.7,1,1.2c0.2,0.5,0.4,1,0.4,1.7c0,0.9-0.2,1.6-0.7,2.3c-0.5,0.7-1.1,1.2-1.9,1.6
		C90.8,19.5,89.8,19.7,88.7,19.7z M101.1,8v1.6h-6V8H101.1z M96.9,5.2h1.8v11.4c0,0.5,0.1,0.8,0.3,1c0.2,0.2,0.5,0.3,1,0.3
		c0.1,0,0.3,0,0.5,0c0.2,0,0.4,0,0.5-0.1l0.2,1.5c-0.2,0-0.4,0.1-0.6,0.1s-0.5,0-0.7,0c-1,0-1.7-0.2-2.3-0.7
		c-0.5-0.5-0.8-1.2-0.8-2.1V5.2z M106.3,19.6c-0.7,0-1.4-0.1-2-0.4c-0.6-0.3-1.1-0.7-1.4-1.2c-0.3-0.5-0.5-1.2-0.5-1.9
		c0-0.7,0.1-1.2,0.4-1.6c0.3-0.4,0.6-0.7,1-1c0.4-0.2,0.9-0.4,1.4-0.5c0.5-0.1,1.1-0.2,1.6-0.3c0.7-0.1,1.3-0.2,1.7-0.2
		c0.4,0,0.7-0.1,0.9-0.2c0.2-0.1,0.3-0.3,0.3-0.6v-0.1c0-0.5-0.1-0.8-0.3-1.2c-0.2-0.3-0.5-0.6-0.8-0.8c-0.4-0.2-0.8-0.3-1.3-0.3
		c-0.5,0-1,0.1-1.4,0.3c-0.4,0.2-0.7,0.4-0.9,0.7c-0.2,0.3-0.4,0.6-0.5,0.9l-1.8-0.3c0.2-0.7,0.5-1.3,1-1.7c0.5-0.5,1-0.8,1.6-1
		c0.6-0.2,1.3-0.3,2-0.3c0.5,0,1,0.1,1.5,0.2c0.5,0.1,1,0.3,1.4,0.6c0.4,0.3,0.8,0.7,1,1.2c0.3,0.5,0.4,1.1,0.4,1.9v7.6h-1.8v-1.6
		h-0.1c-0.1,0.3-0.3,0.5-0.6,0.8c-0.3,0.3-0.6,0.5-1.1,0.7C107.5,19.5,107,19.6,106.3,19.6z M106.6,18c0.7,0,1.3-0.1,1.7-0.4
		c0.5-0.3,0.8-0.6,1.1-1c0.2-0.4,0.4-0.9,0.4-1.4v-1.5c-0.1,0.1-0.2,0.1-0.4,0.2c-0.2,0.1-0.5,0.1-0.8,0.2c-0.3,0.1-0.6,0.1-0.9,0.1
		c-0.3,0-0.6,0.1-0.8,0.1c-0.4,0.1-0.9,0.2-1.2,0.3c-0.4,0.1-0.7,0.3-0.9,0.6c-0.2,0.3-0.4,0.6-0.4,1c0,0.4,0.1,0.7,0.3,1
		c0.2,0.3,0.5,0.5,0.8,0.6C105.7,17.9,106.2,18,106.6,18z M114.2,19.4V8h1.8v1.8h0.1c0.2-0.6,0.6-1.1,1.1-1.4
		c0.5-0.4,1.1-0.5,1.8-0.5c0.2,0,0.3,0,0.5,0c0.2,0,0.3,0,0.4,0v1.8c-0.1,0-0.2,0-0.4-0.1c-0.2,0-0.4,0-0.7,0
		c-0.5,0-0.9,0.1-1.3,0.3c-0.4,0.2-0.7,0.5-1,0.9c-0.2,0.4-0.3,0.9-0.3,1.4v7.1H114.2z M126.3,8v1.6h-6V8H126.3z M122.2,5.2h1.8
		v11.4c0,0.5,0.1,0.8,0.3,1c0.2,0.2,0.5,0.3,1,0.3c0.1,0,0.3,0,0.5,0c0.2,0,0.4,0,0.5-0.1l0.2,1.5c-0.2,0-0.4,0.1-0.6,0.1
		c-0.2,0-0.5,0-0.7,0c-1,0-1.7-0.2-2.3-0.7c-0.5-0.5-0.8-1.2-0.8-2.1V5.2z M132.6,19.6c-1.1,0-2-0.2-2.8-0.7
		c-0.8-0.5-1.4-1.2-1.8-2.1c-0.4-0.9-0.6-1.9-0.6-3.1c0-1.2,0.2-2.2,0.6-3.1c0.4-0.9,1-1.6,1.8-2.1c0.8-0.5,1.7-0.8,2.7-0.8
		c0.7,0,1.3,0.1,1.9,0.4c0.6,0.2,1.1,0.6,1.6,1.1c0.5,0.5,0.8,1.1,1.1,1.8c0.3,0.7,0.4,1.6,0.4,2.6v0.7h-9v-1.6h8l-0.8,0.6
		c0-0.8-0.1-1.4-0.4-2c-0.3-0.6-0.6-1-1.1-1.3c-0.5-0.3-1.1-0.5-1.7-0.5c-0.7,0-1.3,0.2-1.8,0.5c-0.5,0.3-0.9,0.8-1.1,1.3
		c-0.3,0.5-0.4,1.2-0.4,1.8V14c0,0.8,0.1,1.5,0.4,2.1c0.3,0.6,0.7,1,1.2,1.4c0.5,0.3,1.1,0.5,1.9,0.5c0.5,0,0.9-0.1,1.3-0.2
		c0.4-0.1,0.7-0.4,1-0.6c0.3-0.3,0.5-0.6,0.6-1l1.8,0.3c-0.2,0.6-0.5,1.2-0.9,1.7c-0.4,0.5-1,0.9-1.6,1.1
		C134.1,19.5,133.4,19.6,132.6,19.6z M139.5,19.4V8h1.8v1.8h0.1c0.2-0.6,0.6-1.1,1.1-1.4c0.5-0.4,1.1-0.5,1.8-0.5c0.2,0,0.3,0,0.5,0
		c0.2,0,0.3,0,0.4,0v1.8c-0.1,0-0.2,0-0.4-0.1c-0.2,0-0.4,0-0.7,0c-0.5,0-0.9,0.1-1.3,0.3c-0.4,0.2-0.7,0.5-1,0.9
		c-0.2,0.4-0.3,0.9-0.3,1.4v7.1H139.5z M153.4,15v-2.2c0.4-0.5,0.7-0.9,1.1-1.3c0.4-0.4,0.7-0.8,1.1-1.2c0.4-0.4,0.7-0.8,1.1-1.2
		l4.7-5h2.5l-6.6,7.1h-0.1L153.4,15z M152.1,19.4V3.9h1.9v5.3l0,3.3l0,0.9v5.9H152.1z M161.6,19.4l-5.6-7.9l1.2-1.5l6.7,9.4H161.6z
		 M165.7,19.4V8h1.8v11.4H165.7z M166.6,6c-0.3,0-0.6-0.1-0.9-0.4c-0.2-0.2-0.4-0.5-0.4-0.9c0-0.3,0.1-0.6,0.4-0.9
		c0.3-0.2,0.5-0.4,0.9-0.4s0.6,0.1,0.9,0.4c0.2,0.2,0.4,0.5,0.4,0.9c0,0.3-0.1,0.6-0.4,0.9C167.2,5.9,166.9,6,166.6,6z M174.8,8v1.6
		h-6V8H174.8z M170.7,5.2h1.8v11.4c0,0.5,0.1,0.8,0.3,1c0.2,0.2,0.5,0.3,1,0.3c0.1,0,0.3,0,0.5,0c0.2,0,0.4,0,0.5-0.1l0.2,1.5
		c-0.2,0-0.4,0.1-0.6,0.1c-0.2,0-0.5,0-0.7,0c-1,0-1.7-0.2-2.3-0.7c-0.5-0.5-0.8-1.2-0.8-2.1V5.2z"/>
</g>
<g id="Layer_2">
	<g>
		<polygon class="st3" points="16.8,7.2 9.6,7.2 7.3,7.2 7.3,8 7.3,8.8 7.3,10.5 7.3,12.3 7.3,16.8 13.7,16.8 16.8,16.8 16.8,15.6 
			16.8,12.3 16.8,10.5 16.8,10.1 		"/>
		<path class="st4" d="M10.5,1.9c0.8,0,1.5-0.1,2.2-0.2H7.2C8.2,1.8,9.3,1.9,10.5,1.9z"/>
		<path class="st4" d="M12.7,1.6c1.7-0.3,3-1,4.3-1.6H4.2C3.7,0,3.2,0.1,2.8,0.2c1.4,0.5,2.7,1.1,4.4,1.4H12.7z"/>
		<path class="st5" d="M4.8,8.4C5.7,8.3,6.5,8.2,7.3,8V7.3h2.4c1-0.4,1.9-0.9,2.8-1.4H0v2.3C1.4,8.4,3,8.5,4.8,8.4z"/>
		<path class="st5" d="M20.6,2.9c1.1-0.1,2.2,0,3.3,0.1c-0.1-0.4-0.3-0.8-0.5-1.1c0-0.1-0.1-0.1-0.2-0.2H12.7
			c-0.6,0.1-1.3,0.2-2.2,0.2c-1.3,0-2.4,0-3.4-0.2H0.9c0,0.1-0.1,0.1-0.2,0.2C0.3,2.5,0,3.3,0,4.1v1.6h12.4
			C14.7,4.5,16.9,3.1,20.6,2.9z"/>
		<path class="st5" d="M2.8,0.2C2,0.5,1.4,1,0.9,1.6h6.3C5.5,1.3,4.2,0.8,2.8,0.2z"/>
		<path class="st5" d="M23.1,1.6c-0.8-1-1.9-1.6-3.3-1.6l0,0H17c-1.3,0.6-2.5,1.3-4.3,1.6H23.1z"/>
		<path class="st6" d="M24,12.2v-1.7h-6.3C19.6,11.2,21.4,11.9,24,12.2z"/>
		<path class="st6" d="M0,10.5v0.9c0.8-0.3,1.6-0.6,2.3-0.9H0z"/>
		<path class="st6" d="M9.6,7.2h7.1v2.8c0.3,0.1,0.7,0.2,1,0.4H24V5.8H12.4C11.6,6.3,10.7,6.8,9.6,7.2z"/>
		<path class="st6" d="M7.3,8.8V8C6.5,8.2,5.7,8.3,4.8,8.4C3,8.5,1.4,8.4,0,8.1v2.4h2.3C3.8,9.8,5.2,9.1,7.3,8.8z"/>
		<path class="st6" d="M20.6,2.9c-3.7,0.2-5.8,1.6-8.1,3H24V4.2C24,3.8,24,3.4,23.8,3C22.8,2.9,21.7,2.8,20.6,2.9z"/>
		<path class="st7" d="M16.8,15.6c2.1-0.9,4.1-1.8,7.2-2v-1.3h-7.2V15.6z"/>
		<path class="st7" d="M8.8,17.5c2,0,3.5-0.4,4.9-0.8H7.3v-4.4H0v3.1C2.5,16.4,4.5,17.6,8.8,17.5z"/>
		<path class="st7" d="M7.3,10.5h-5c-0.7,0.3-1.4,0.7-2.3,0.9v0.9h7.2V10.5z"/>
		<path class="st7" d="M17.7,10.5h-1v1.9H24v-0.1C21.4,11.9,19.6,11.2,17.7,10.5z"/>
		<path class="st7" d="M2.3,10.5h4.9V8.8C5.2,9.1,3.8,9.8,2.3,10.5z"/>
		<path class="st7" d="M16.8,10.5h1c-0.3-0.1-0.7-0.3-1-0.4V10.5z"/>
		<path class="st8" d="M0,19.3v0.5c0,0.4,0.1,0.7,0.2,1.1c3.3-0.2,5.5-0.9,8.1-1.6L0,19.3z"/>
		<path class="st8" d="M16.8,16.8h-3.1c-1.4,0.4-2.9,0.7-4.9,0.8c-4.3,0.1-6.4-1.1-8.8-2.1v3.9h8.2c2.3-0.7,4.8-1.3,8.5-1.4
			c1.9-0.1,4.4,0,7.2,0.3v-4.6c-3.1,0.2-5.2,1.1-7.2,2L16.8,16.8L16.8,16.8z"/>
		<path class="st9" d="M0.2,20.9c0.1,0.5,0.3,0.9,0.6,1.2c0.7,1.1,2,1.8,3.4,1.8h15.7l0,0c1.4,0,2.7-0.7,3.4-1.8
			c0.5-0.7,0.7-1.5,0.7-2.3v-0.5H8.2C5.7,20,3.5,20.8,0.2,20.9z"/>
		<path class="st9" d="M16.8,17.8c-3.7,0.2-6.2,0.8-8.5,1.4H24v-1.1C21.2,17.8,18.7,17.8,16.8,17.8z"/>
	</g>
	<g>
		<path class="st10" d="M44,16.9l-2.3-8.6l-2.3,8.6c-0.2,0.7-0.3,1.1-0.4,1.4s-0.3,0.5-0.6,0.8s-0.6,0.3-1.1,0.3
			c-0.4,0-0.7-0.1-0.9-0.2s-0.4-0.3-0.6-0.6s-0.3-0.5-0.4-0.9s-0.2-0.6-0.2-0.9l-2.4-9.6c-0.1-0.6-0.2-1-0.2-1.3
			c0-0.4,0.1-0.7,0.4-0.9s0.6-0.4,1-0.4c0.5,0,0.9,0.2,1.1,0.5s0.3,0.8,0.5,1.5l1.9,8.4l2.1-7.8c0.2-0.6,0.3-1.1,0.4-1.4
			s0.3-0.6,0.6-0.8s0.7-0.3,1.1-0.3c0.5,0,0.9,0.1,1.1,0.4s0.5,0.5,0.6,0.8s0.2,0.7,0.4,1.4l2.1,7.8l1.9-8.4c0.1-0.4,0.2-0.8,0.3-1
			s0.2-0.5,0.4-0.7s0.5-0.3,0.9-0.3s0.7,0.1,1,0.4s0.4,0.6,0.4,0.9c0,0.3-0.1,0.7-0.2,1.3l-2.4,9.6c-0.2,0.7-0.3,1.1-0.4,1.4
			s-0.3,0.6-0.5,0.8s-0.6,0.3-1.1,0.3c-0.4,0-0.8-0.1-1.1-0.3s-0.5-0.5-0.6-0.7S44.2,17.6,44,16.9z"/>
		<path class="st10" d="M55.8,17.7v-4.5l-3.5-5.4c-0.3-0.5-0.5-0.9-0.6-1.1s-0.2-0.5-0.2-0.7c0-0.3,0.1-0.6,0.4-0.9s0.6-0.4,1-0.4
			c0.4,0,0.7,0.1,0.9,0.3s0.5,0.7,0.9,1.3l2.7,4.3L60,6.3c0.2-0.3,0.3-0.5,0.4-0.7s0.2-0.4,0.4-0.5s0.3-0.3,0.4-0.4s0.4-0.1,0.6-0.1
			c0.4,0,0.7,0.1,0.9,0.4s0.4,0.5,0.4,0.8c0,0.3-0.1,0.5-0.2,0.8s-0.3,0.6-0.6,1.1l-3.6,5.5v4.5c0,0.6-0.1,1-0.4,1.3s-0.6,0.4-1,0.4
			c-0.4,0-0.8-0.1-1-0.4S55.8,18.3,55.8,17.7z"/>
		<path class="st10" d="M68,6.4v4.1h6.3V6.4c0-0.6,0.1-1,0.4-1.3s0.6-0.4,1-0.4c0.4,0,0.8,0.1,1.1,0.4s0.4,0.7,0.4,1.3v11.3
			c0,0.6-0.1,1-0.4,1.3s-0.6,0.4-1.1,0.4c-0.4,0-0.8-0.1-1-0.4s-0.4-0.7-0.4-1.3v-4.8H68v4.8c0,0.6-0.1,1-0.4,1.3s-0.6,0.4-1.1,0.4
			c-0.4,0-0.8-0.1-1-0.4s-0.4-0.7-0.4-1.3V6.4c0-0.6,0.1-1,0.4-1.3s0.6-0.4,1-0.4c0.4,0,0.8,0.1,1.1,0.4S68,5.8,68,6.4z"/>
		<path class="st10" d="M80.4,17.7V6.4c0-0.6,0.1-1,0.4-1.3s0.6-0.4,1-0.4c0.4,0,0.8,0.1,1.1,0.4s0.4,0.7,0.4,1.3v11.3
			c0,0.6-0.1,1-0.4,1.3s-0.6,0.4-1.1,0.4c-0.4,0-0.8-0.1-1-0.4S80.4,18.3,80.4,17.7z"/>
		<path class="st10" d="M89.4,6.4v10.4h5.9c0.5,0,0.8,0.1,1.1,0.3s0.4,0.5,0.4,0.9c0,0.4-0.1,0.6-0.4,0.9s-0.6,0.3-1.1,0.3h-7
			c-0.6,0-1.1-0.1-1.4-0.4s-0.4-0.7-0.4-1.4v-11c0-0.6,0.1-1,0.4-1.3s0.6-0.4,1-0.4c0.4,0,0.8,0.1,1.1,0.4
			C89.3,5.4,89.4,5.8,89.4,6.4z"/>
		<path class="st11" d="M111.6,6.4v5l5.7-5.9c0.3-0.3,0.5-0.5,0.7-0.6s0.4-0.2,0.8-0.2c0.4,0,0.8,0.1,1,0.4s0.4,0.5,0.4,0.9
			c0,0.4-0.2,0.8-0.7,1.3l-3.5,3.3l4.1,5.8c0.3,0.4,0.5,0.8,0.6,1.1s0.2,0.6,0.2,0.9c0,0.3-0.1,0.6-0.4,0.8s-0.6,0.4-1,0.4
			c-0.4,0-0.7-0.1-1-0.3s-0.5-0.4-0.6-0.7s-0.3-0.5-0.5-0.8l-3.4-5.3l-2.4,2.3v3c0,0.6-0.1,1-0.4,1.3s-0.6,0.4-1.1,0.4
			c-0.2,0-0.5-0.1-0.7-0.2s-0.4-0.3-0.5-0.5c-0.1-0.2-0.1-0.4-0.2-0.6s0-0.6,0-1V6.4c0-0.6,0.1-1,0.4-1.3s0.6-0.4,1-0.4
			c0.4,0,0.8,0.1,1.1,0.4S111.6,5.8,111.6,6.4z"/>
		<path class="st11" d="M122.9,16.4l3.2-4.7l-2.7-4.2c-0.3-0.4-0.4-0.8-0.6-1s-0.2-0.6-0.2-0.8c0-0.3,0.1-0.5,0.4-0.7
			s0.5-0.3,0.9-0.3c0.4,0,0.7,0.1,0.9,0.4s0.5,0.7,0.9,1.3l2.1,3.5l2.3-3.5c0.2-0.3,0.3-0.5,0.5-0.8s0.3-0.4,0.4-0.5
			s0.3-0.2,0.4-0.3s0.3-0.1,0.5-0.1c0.4,0,0.7,0.1,0.9,0.3s0.3,0.5,0.3,0.8c0,0.4-0.3,1-0.8,1.8l-2.8,4.2l3,4.7
			c0.3,0.4,0.5,0.8,0.6,1s0.2,0.5,0.2,0.8c0,0.2-0.1,0.4-0.2,0.6s-0.3,0.3-0.5,0.4s-0.4,0.2-0.7,0.2c-0.3,0-0.5-0.1-0.7-0.2
			s-0.3-0.3-0.5-0.4s-0.3-0.5-0.7-1l-2.5-4l-2.7,4.1c-0.2,0.3-0.4,0.6-0.4,0.7s-0.2,0.3-0.3,0.4s-0.3,0.2-0.4,0.3s-0.4,0.1-0.6,0.1
			c-0.4,0-0.6-0.1-0.9-0.3s-0.3-0.5-0.3-0.9C122.2,17.7,122.5,17.1,122.9,16.4z"/>
		<path class="st11" d="M141.1,13.6h-2.7v4.1c0,0.6-0.1,1-0.4,1.3s-0.6,0.4-1,0.4c-0.4,0-0.8-0.1-1.1-0.4s-0.4-0.7-0.4-1.3v-11
			c0-0.6,0.1-1.1,0.4-1.4s0.8-0.4,1.4-0.4h3.7c1.1,0,1.9,0.1,2.5,0.3c0.6,0.2,1.1,0.4,1.5,0.8s0.8,0.8,1,1.4s0.3,1.2,0.3,1.8
			c0,1.5-0.4,2.6-1.3,3.3S142.9,13.6,141.1,13.6z M140.4,7.1h-2v4.4h2c0.7,0,1.3-0.1,1.7-0.2s0.8-0.4,1-0.7s0.4-0.8,0.4-1.3
			c0-0.6-0.2-1.1-0.6-1.5C142.5,7.3,141.7,7.1,140.4,7.1z"/>
	</g>
</g>
</svg>
